# xmcd CD database file
#
# Track frame offsets:
#	150
#	23113
#	47477
#	67572
#	86774
#	107498
#	122534
#	146329
#	170070
#	182572
#	209104
#	233483
#	252303
#	276739
#	296124
#	314296
#
# Disc length: 4485 seconds
#
# Revision: 0
# Processed by: cddbd v1.5.1PL0 Copyright (c) Steve Scherf et al.
# Submitted via: CDex 1.51
#
DISCID=e6118310
DTITLE=Various Artist - Blue Night CD 2 New Jazz
DYEAR=1900
DGENRE=Jazz
TTITLE0=Till Bronner - Just the way you are
TTITLE1=Gerald Albright, Will Downing - The Look of love
TTITLE2=Chris Botti - When rain falls
TTITLE3=Lizz Wright - Fire
TTITLE4=Will Downing - Maybe
TTITLE5=David Sanborn - Isn't she lovely
TTITLE6=Natalie Cole - So many Stars
TTITLE7=Till Bronner - When I fall in love
TTITLE8=Nicoletta -Ou es tu passe mon Saint-Germain des Pres
TTITLE9=Ronny Jordan - After hour (The antidote)
TTITLE10=Berdy Belle - When my anger starts to cry
TTITLE11=Jeff Lorber - Moonterrace
TTITLE12=Kenny Rankin - Then I'll be tired of you
TTITLE13=Laura Fygi, Michael Franks - Tell me all about it
TTITLE14=Buggee Wesseltoft, Sidsel Endresen - Try
TTITLE15=David Benoit - Someday soon
EXTD=
EXTT0=
EXTT1=
EXTT2=
EXTT3=
EXTT4=
EXTT5=
EXTT6=
EXTT7=
EXTT8=
EXTT9=
EXTT10=
EXTT11=
EXTT12=
EXTT13=
EXTT14=
EXTT15=
PLAYORDER=
